<svg width="0" height="0" class="hidden">
  <symbol fill="none" xmlns="http://www.w3.org/2000/svg" viewBox="0 0 11 20" id="facebook-icon">
    <path d="M7 11.5H9.5L10.5 7.5H7V5.5C7 4.47 7 3.5 9 3.5H10.5V0.14C10.174 0.0970001 8.943 0 7.643 0C4.928 0 3 1.657 3 4.7V7.5H0V11.5H3V20H7V11.5Z"></path>
  </symbol>
  <symbol fill="none" xmlns="http://www.w3.org/2000/svg" viewBox="0 0 20 20" id="instagram-icon">
    <path d="M5.8 0H14.2C17.4 0 20 2.6 20 5.8V14.2C20 15.7383 19.3889 17.2135 18.3012 18.3012C17.2135 19.3889 15.7383 20 14.2 20H5.8C2.6 20 0 17.4 0 14.2V5.8C0 4.26174 0.61107 2.78649 1.69878 1.69878C2.78649 0.61107 4.26174 0 5.8 0ZM5.6 2C4.64522 2 3.72955 2.37928 3.05442 3.05442C2.37928 3.72955 2 4.64522 2 5.6V14.4C2 16.39 3.61 18 5.6 18H14.4C15.3548 18 16.2705 17.6207 16.9456 16.9456C17.6207 16.2705 18 15.3548 18 14.4V5.6C18 3.61 16.39 2 14.4 2H5.6ZM15.25 3.5C15.5815 3.5 15.8995 3.6317 16.1339 3.86612C16.3683 4.10054 16.5 4.41848 16.5 4.75C16.5 5.08152 16.3683 5.39946 16.1339 5.63388C15.8995 5.8683 15.5815 6 15.25 6C14.9185 6 14.6005 5.8683 14.3661 5.63388C14.1317 5.39946 14 5.08152 14 4.75C14 4.41848 14.1317 4.10054 14.3661 3.86612C14.6005 3.6317 14.9185 3.5 15.25 3.5ZM10 5C11.3261 5 12.5979 5.52678 13.5355 6.46447C14.4732 7.40215 15 8.67392 15 10C15 11.3261 14.4732 12.5979 13.5355 13.5355C12.5979 14.4732 11.3261 15 10 15C8.67392 15 7.40215 14.4732 6.46447 13.5355C5.52678 12.5979 5 11.3261 5 10C5 8.67392 5.52678 7.40215 6.46447 6.46447C7.40215 5.52678 8.67392 5 10 5ZM10 7C9.20435 7 8.44129 7.31607 7.87868 7.87868C7.31607 8.44129 7 9.20435 7 10C7 10.7956 7.31607 11.5587 7.87868 12.1213C8.44129 12.6839 9.20435 13 10 13C10.7956 13 11.5587 12.6839 12.1213 12.1213C12.6839 11.5587 13 10.7956 13 10C13 9.20435 12.6839 8.44129 12.1213 7.87868C11.5587 7.31607 10.7956 7 10 7Z" ></path>
  </symbol>
  <symbol fill="none" xmlns="http://www.w3.org/2000/svg" viewBox="0 0 20 18" id="linkedin-icon">
    <path d="M4.94 2.00002C4.93974 2.53046 4.72877 3.03906 4.35351 3.41394C3.97825 3.78883 3.46944 3.99929 2.939 3.99902C2.40857 3.99876 1.89997 3.78779 1.52508 3.41253C1.1502 3.03727 0.939737 2.52846 0.940003 1.99802C0.940268 1.46759 1.15124 0.958988 1.5265 0.584103C1.90176 0.209218 2.41057 -0.00124153 2.941 -0.000976312C3.47144 -0.000711096 3.98004 0.210257 4.35492 0.585517C4.72981 0.960777 4.94027 1.46959 4.94 2.00002ZM5 5.48002H1V18H5V5.48002ZM11.32 5.48002H7.34V18H11.28V11.43C11.28 7.77002 16.05 7.43002 16.05 11.43V18H20V10.07C20 3.90002 12.94 4.13002 11.28 7.16002L11.32 5.48002Z"></path>
  </symbol>
  <symbol fill="none" xmlns="http://www.w3.org/2000/svg" viewBox="0 0 13 15" id="location-icon">
    <path d="M6.5 0C8.22391 0 9.87721 0.677294 11.0962 1.88289C12.3152 3.08848 13 4.72361 13 6.42857C13 9.09 10.9489 11.8786 6.93333 14.8571C6.80832 14.9499 6.65627 15 6.5 15C6.34373 15 6.19168 14.9499 6.06667 14.8571C2.05111 11.8786 0 9.09 0 6.42857C0 4.72361 0.684819 3.08848 1.90381 1.88289C3.12279 0.677294 4.77609 0 6.5 0ZM6.5 4.28571C5.92536 4.28571 5.37426 4.51148 4.96794 4.91334C4.56161 5.31521 4.33333 5.86025 4.33333 6.42857C4.33333 6.99689 4.56161 7.54194 4.96794 7.9438C5.37426 8.34566 5.92536 8.57143 6.5 8.57143C7.07464 8.57143 7.62574 8.34566 8.03206 7.9438C8.43839 7.54194 8.66667 6.99689 8.66667 6.42857C8.66667 5.86025 8.43839 5.31521 8.03206 4.91334C7.62574 4.51148 7.07464 4.28571 6.5 4.28571Z" ></path>
  </symbol>
  <symbol fill="none" xmlns="http://www.w3.org/2000/svg" viewBox="0 0 43 71" id="question-svg-icon">
    <path d="M21.424 70.248C17.392 70.248 14.032 66.888 14.032 62.76C14.032 58.728 17.392 55.368 21.424 55.368C25.552 55.368 28.912 58.728 28.912 62.76C28.912 66.888 25.552 70.248 21.424 70.248ZM21.424 56.232C17.872 56.232 14.896 59.208 14.896 62.76C14.896 66.408 17.872 69.384 21.424 69.384C25.072 69.384 28.048 66.408 28.048 62.76C28.048 59.208 25.072 56.232 21.424 56.232ZM27.664 47.208V47.592H15.376V47.208C15.376 38.856 19.696 34.248 23.536 30.216C26.512 27.048 29.104 24.264 29.104 20.328C29.104 15.432 25.936 12.456 20.656 12.456C14.896 12.456 13.072 16.872 12.496 19.464L12.4 19.944L0.592 16.968L0.688 16.584C2.992 6.6 10.864 0.647999 21.52 0.647999C32.656 0.647999 42.064 8.904 42.064 18.6C42.064 26.472 38.128 30.504 34.384 34.344C30.928 37.896 27.664 41.16 27.664 47.208ZM16.24 46.728H26.896C26.992 40.68 30.256 37.32 33.808 33.768C37.456 30.024 41.296 26.088 41.296 18.6C41.296 9.288 32.272 1.512 21.52 1.512C11.344 1.512 3.952 7.08 1.648 16.392L11.728 18.888C12.88 14.28 16.144 11.592 20.656 11.592C26.416 11.592 29.968 14.952 29.968 20.328C29.968 24.552 27.184 27.624 24.112 30.792C20.464 34.632 16.336 39.048 16.24 46.728Z"></path>
  </symbol>
  <symbol fill="none" xmlns="http://www.w3.org/2000/svg" viewBox="0 0 170 32" id="getlinked-logo">
    <path d="M9.144 22.984C3.744 22.984 0.72 19.888 0.72 14.704C0.72 9.592 3.96 6.496 9.324 6.496C12.996 6.496 15.444 7.972 15.948 11.104H16.308V6.856H22.644V21.94C22.644 28.42 18.792 31.48 11.808 31.48C5.472 31.48 1.8 28.816 1.8 24.064H8.568C8.568 25.54 8.748 25.9 12.276 25.9C15.192 25.9 15.876 25.468 15.876 22.408V18.592H15.516C15.048 21.22 13.14 22.984 9.144 22.984ZM7.56 14.704C7.56 16.504 8.424 17.188 11.592 17.188C14.616 17.188 15.876 16.828 15.876 14.92V14.668C15.876 12.724 14.616 12.328 11.592 12.328C8.424 12.328 7.56 12.94 7.56 14.704ZM34.9265 25.36C28.7705 25.36 24.4505 22.732 24.4505 15.928C24.4505 10.024 28.7345 6.496 34.7825 6.496C41.0465 6.496 45.0425 9.628 45.0425 15.46C45.0425 16.072 45.0065 16.54 44.9345 17.188H30.7145C30.8225 19.384 31.7945 19.996 34.6745 19.996C37.4105 19.996 38.1305 19.528 38.1305 18.448V18.052H44.8985V18.484C44.8985 22.516 41.0465 25.36 34.9265 25.36ZM34.6385 11.68C32.1545 11.68 31.1105 12.22 30.8225 13.768H38.4905C38.2385 12.22 37.1585 11.68 34.6385 11.68ZM60.4254 25H55.6734C51.1374 25 48.4374 22.804 48.4374 18.088V12.4H45.7734V6.856H48.4374V3.724H55.2054V6.856H60.4254V12.4H55.2054V17.116C55.2054 18.556 55.6374 18.916 57.1854 18.916H60.4254V25Z"></path>
    <path d="M68.8089 25H62.0409V0.879999H68.8089V25ZM77.7386 5.2H70.9706V0.879999H77.7386V5.2ZM77.7386 25H70.9706V6.856H77.7386V25ZM86.6683 25H79.9003V6.856H86.2363V12.364H86.5963C86.9923 9.34 88.9723 6.496 93.8323 6.496C98.7283 6.496 101.032 9.448 101.032 13.372V25H94.2643V15.856C94.2643 13.336 93.3283 12.544 90.3763 12.544C87.3883 12.544 86.6683 13.3 86.6683 15.64V25ZM109.801 25H103.033V0.879999H109.801V13.156H113.005L117.001 6.856H124.993L118.549 15.676L124.885 25H116.893L113.077 19.204H109.801V25ZM135.825 25.36C129.669 25.36 125.349 22.732 125.349 15.928C125.349 10.024 129.633 6.496 135.681 6.496C141.945 6.496 145.941 9.628 145.941 15.46C145.941 16.072 145.905 16.54 145.833 17.188H131.613C131.721 19.384 132.693 19.996 135.573 19.996C138.309 19.996 139.029 19.528 139.029 18.448V18.052H145.797V18.484C145.797 22.516 141.945 25.36 135.825 25.36ZM135.537 11.68C133.053 11.68 132.009 12.22 131.721 13.768H139.389C139.137 12.22 138.057 11.68 135.537 11.68ZM155.996 25.36C150.452 25.36 147.392 21.796 147.392 15.928C147.392 10.024 150.38 6.496 155.708 6.496C159.992 6.496 162.008 8.512 162.548 11.536H162.908V0.879999H169.676V25H163.34V20.104H162.98C162.404 23.704 160.244 25.36 155.996 25.36ZM154.232 15.928C154.232 18.34 155.312 19.168 158.444 19.168C161.468 19.168 162.908 18.592 162.908 15.964V15.712C162.908 13.156 161.468 12.652 158.444 12.652C155.312 12.652 154.232 13.516 154.232 15.928Z" fill="#D434FE"></path>
  </symbol>
  <symbol fill="none" xmlns="http://www.w3.org/2000/svg" viewBox="0 0 17 17" id="list-terms-icon">
    <circle cx="8.5" cy="8.5" r="8.5" fill="#2DE100"></circle>
    <path d="M5 8L7 10.5L13.5 6" stroke="white" stroke-width="2"></path>
  </symbol>
  <symbol fill="none" xmlns="http://www.w3.org/2000/svg" viewBox="0 0 12 12" id="phone-icon">
    <path d="M12 6C11.9997 4.4088 11.3674 2.88286 10.2423 1.75771C9.11714 0.632561 7.5912 0.000318145 6 0V1.2C6.94926 1.20022 7.87715 1.48178 8.66646 2.00912C9.45576 2.53646 10.0711 3.28592 10.4346 4.1628C10.6759 4.74526 10.8 5.36955 10.8 6H12ZM0 4.8V1.8C0 1.64087 0.0632141 1.48826 0.175736 1.37574C0.288258 1.26321 0.44087 1.2 0.6 1.2H3.6C3.75913 1.2 3.91174 1.26321 4.02426 1.37574C4.13679 1.48826 4.2 1.64087 4.2 1.8V4.2C4.2 4.35913 4.13679 4.51174 4.02426 4.62426C3.91174 4.73679 3.75913 4.8 3.6 4.8H2.4C2.4 6.07304 2.90571 7.29394 3.80589 8.19411C4.70606 9.09429 5.92696 9.6 7.2 9.6V8.4C7.2 8.24087 7.26321 8.08826 7.37574 7.97574C7.48826 7.86321 7.64087 7.8 7.8 7.8H10.2C10.3591 7.8 10.5117 7.86321 10.6243 7.97574C10.7368 8.08826 10.8 8.24087 10.8 8.4V11.4C10.8 11.5591 10.7368 11.7117 10.6243 11.8243C10.5117 11.9368 10.3591 12 10.2 12H7.2C3.2238 12 0 8.7762 0 4.8Z"></path>
    <path d="M9.3258 4.62279C9.50692 5.05949 9.6001 5.52763 9.6 6.00039H8.52C8.52008 5.66944 8.45495 5.34171 8.32834 5.03594C8.20172 4.73016 8.0161 4.45232 7.78208 4.21831C7.54807 3.98429 7.27023 3.79867 6.96446 3.67205C6.65868 3.54544 6.33095 3.48031 6 3.48039V2.40039C6.71199 2.40043 7.40798 2.61159 7.99997 3.00717C8.59195 3.40275 9.05334 3.96499 9.3258 4.62279Z"></path>
  </symbol>
  <symbol fill="none" xmlns="http://www.w3.org/2000/svg" viewBox="0 0 19 17" id="twitter(x)-icon">
    <path d="M6.04545 0H0L7.13364 9.3619L0.388636 17H2.67727L8.19418 10.7533L12.9545 17H19L11.5658 7.2437L17.9636 0H15.675L10.5053 5.8531L6.04545 0ZM13.8182 15.3L3.45455 1.7H5.18182L15.5455 15.3H13.8182Z"></path>
  </symbol>
</svg>